# File created by Blade
# Date/Time:  Tue Jan 27 19:58:31 2015
# Frame Rate: 120.000 fps
#------------------------------------------------------
:FULLY-SPECIFIED
:DEGREES
1694
root 5.630725 33.971090 1.666501 11.465477 -10.998507 -24.199158
Spine 1.063726 13.333487 12.767645
Head -19.568670 -5.733116 13.064612
LeftShoulder -17.136895 0.211373 31.131793
LeftArm -9.119889 -11.749665 -82.081528
LeftForeArm -16.562326 0.000000 124.213969
LeftHand 10.127584 -0.000000 -14.028318
LeftHandThumb1 -26.253704 0.000000 33.147579
RightShoulder -21.264619 -13.787334 -19.293043
RightArm 7.664316 -3.783186 84.626875
RightForeArm -14.116553 0.000000 16.199127
RightHand 18.300476 -0.000000 5.618526
RightHandThumb1 -24.326973 -0.000000 -32.862282
LeftUpLeg -0.486436 9.929648 15.636981
LeftLeg -4.459743 -0.000000 0.000000
LeftFoot -14.447406 15.588943 -16.890447
LeftToeBase 21.402186 -0.000000 -0.000000
RightUpLeg -47.798083 -29.120051 24.485247
RightLeg 132.252321 -0.000000 -0.000000
RightFoot 33.683955 -20.851937 28.628946
RightToeBase 12.366775 -0.000000 -0.000000
1695
root 5.632311 33.961915 1.687946 11.241614 -11.243589 -24.148471
Spine 1.200371 13.407986 12.653425
Head -19.278317 -5.751984 13.019964
LeftShoulder -17.146615 0.304072 31.131395
LeftArm -9.099457 -11.722468 -82.111310
LeftForeArm -16.555685 0.000000 124.336469
LeftHand 10.051723 -0.000000 -14.092295
LeftHandThumb1 -26.253704 0.000000 33.147579
RightShoulder -21.257892 -13.852721 -19.369642
RightArm 7.730705 -3.850539 84.604749
RightForeArm -13.931857 -0.000000 16.235768
RightHand 18.172385 -0.000000 5.950906
RightHandThumb1 -24.326973 -0.000000 -32.862282
LeftUpLeg -0.154198 9.871750 15.597422
LeftLeg -4.408112 -0.000000 0.000000
LeftFoot -14.589539 15.709478 -16.930712
LeftToeBase 21.293155 -0.000000 -0.000000
RightUpLeg -47.957651 -29.249139 24.525003
RightLeg 132.330654 -0.000000 -0.000000
RightFoot 33.841372 -20.813818 28.473407
RightToeBase 11.609676 -0.000000 -0.000000
1696
root 5.635114 33.951549 1.705530 11.024590 -11.537548 -24.107680
Spine 1.324724 13.551437 12.537297
Head -18.926646 -5.801184 12.944172
LeftShoulder -17.075846 0.349900 31.141208
LeftArm -9.146831 -11.718420 -82.105540
LeftForeArm -16.547009 -0.000000 124.489151
LeftHand 10.071051 -0.000000 -14.196297
LeftHandThumb1 -26.253704 0.000000 33.147579
RightShoulder -21.270478 -13.906159 -19.443786
RightArm 7.775931 -3.971343 84.561181
RightForeArm -14.033332 -0.000000 16.253580
RightHand 18.158934 -0.000000 6.125548
RightHandThumb1 -24.326973 -0.000000 -32.862282
LeftUpLeg 0.193276 9.937475 15.553078
LeftLeg -4.383850 -0.000000 0.000000
LeftFoot -14.772520 15.790777 -17.044195
LeftToeBase 21.502200 -0.000000 -0.000000
RightUpLeg -48.264917 -29.346361 24.613780
RightLeg 132.337440 -0.000000 -0.000000
RightFoot 33.688294 -21.009425 28.580567
RightToeBase 12.020971 -0.000000 -0.000000
1697
root 5.639406 33.942947 1.723225 10.807557 -11.829046 -24.078979
Spine 1.470606 13.569711 12.480305
Head -18.572004 -5.725706 12.766667
LeftShoulder -17.198455 0.602477 31.072042
LeftArm -8.983115 -11.625660 -82.128826
LeftForeArm -16.532415 -0.000000 124.570001
LeftHand 10.102061 -0.000000 -14.295555
LeftHandThumb1 -26.253704 0.000000 33.147579
RightShoulder -21.219660 -13.977775 -19.552851
RightArm 7.904965 -4.142959 84.529772
RightForeArm -14.028643 -0.000000 16.252862
RightHand 18.178645 -0.000000 5.951720
RightHandThumb1 -24.326973 -0.000000 -32.862282
LeftUpLeg 0.506314 9.943131 15.528129
LeftLeg -4.271078 -0.000000 0.000000
LeftFoot -14.968403 15.870715 -17.131147
LeftToeBase 21.476736 -0.000000 -0.000000
RightUpLeg -48.618098 -29.463262 24.717930
RightLeg 132.213275 -0.000000 -0.000000
RightFoot 33.773665 -21.066526 28.347184
RightToeBase 11.186795 -0.000000 -0.000000
